HIERARCHY
ROOT Hips
{
	OFFSET 57.128101 -33.899815 96.911789
	CHANNELS 6 Xposition Yposition Zposition Xrotation Yrotation Zrotation
	JOINT spine
	{
		OFFSET 0.000000 -0.458069 7.965683
		CHANNELS 3 Xrotation Yrotation Zrotation
		JOINT spine1
		{
			OFFSET 0.000000 -0.000004 10.243103
			CHANNELS 3 Xrotation Yrotation Zrotation
			JOINT spine2
			{
				OFFSET 0.000000 0.000000 9.814751
				CHANNELS 3 Xrotation Yrotation Zrotation
				JOINT Neck
				{
					OFFSET 0.000000 -1.201385 25.198616
					CHANNELS 3 Xrotation Yrotation Zrotation
					JOINT Head
					{
						OFFSET 0.000000 -0.000004 7.613144
						CHANNELS 3 Xrotation Yrotation Zrotation
						End Site
						{
							OFFSET 0.000000 6.077328 18.428101
						}
					}
				}
				JOINT RightShoulder
				{
					OFFSET -4.132702 0.575447 10.599205
					CHANNELS 3 Xrotation Yrotation Zrotation
					JOINT RightArm
					{
						OFFSET 0.000000 0.000000 13.901794
						CHANNELS 3 Xrotation Yrotation Zrotation
						JOINT RightArmRoll
						{
							OFFSET 0.000000 -0.000004 7.017883
							CHANNELS 3 Xrotation Yrotation Zrotation
							JOINT RightForeArm
							{
								OFFSET 0.000000 -0.000004 20.440598
								CHANNELS 3 Xrotation Yrotation Zrotation
								JOINT RightForeArmRoll
								{
									OFFSET 0.000000 0.000000 7.875153
									CHANNELS 3 Xrotation Yrotation Zrotation
									JOINT RightHand
									{
										OFFSET 0.000000 -0.000004 15.803696
										CHANNELS 3 Xrotation Yrotation Zrotation
										End Site
										{
											OFFSET 0.000000 0.000000 0.100006
										}
									}
								}
							}
						}
					}
				}
				JOINT LeftShoulder
				{
					OFFSET 4.132702 0.575447 10.599205
					CHANNELS 3 Xrotation Yrotation Zrotation
					JOINT LeftArm
					{
						OFFSET 0.000000 0.000000 13.901794
						CHANNELS 3 Xrotation Yrotation Zrotation
						JOINT LeftArmRoll
						{
							OFFSET 0.000000 -0.000004 7.017883
							CHANNELS 3 Xrotation Yrotation Zrotation
							JOINT LeftForeArm
							{
								OFFSET 0.000000 -0.000004 20.440598
								CHANNELS 3 Xrotation Yrotation Zrotation
								JOINT LeftForeArmRoll
								{
									OFFSET 0.000000 0.000000 7.875153
									CHANNELS 3 Xrotation Yrotation Zrotation
									JOINT LeftHand
									{
										OFFSET 0.000000 -0.000004 15.803696
										CHANNELS 3 Xrotation Yrotation Zrotation
										End Site
										{
											OFFSET 0.000000 0.000000 0.100006
										}
									}
								}
							}
						}
					}
				}
			}
		}
	}
	JOINT RightUpLeg
	{
		OFFSET -7.060482 1.086102 -1.294701
		CHANNELS 3 Xrotation Yrotation Zrotation
		JOINT RightUpLegRoll
		{
			OFFSET 0.000000 -0.000004 18.530800
			CHANNELS 3 Xrotation Yrotation Zrotation
			JOINT RightLeg
			{
				OFFSET 0.000000 0.000004 -22.947601
				CHANNELS 3 Xrotation Yrotation Zrotation
				JOINT RightLegRoll
				{
					OFFSET 0.000000 -0.000004 23.022598
					CHANNELS 3 Xrotation Yrotation Zrotation
					JOINT RightFoot
					{
						OFFSET 0.000000 -0.000004 19.162506
						CHANNELS 3 Xrotation Yrotation Zrotation
						JOINT RightToeBase
						{
							OFFSET 0.000000 0.000000 16.018799
							CHANNELS 3 Xrotation Yrotation Zrotation
							End Site
							{
								OFFSET 0.006790 0.894205 7.757828
							}
						}
					}
				}
			}
		}
	}
	JOINT LeftUpLeg
	{
		OFFSET 7.060482 1.086102 -1.294701
		CHANNELS 3 Xrotation Yrotation Zrotation
		JOINT LeftUpLegRoll
		{
			OFFSET 0.000000 -0.000004 18.530899
			CHANNELS 3 Xrotation Yrotation Zrotation
			JOINT LeftLeg
			{
				OFFSET 0.000000 -0.000004 22.947502
				CHANNELS 3 Xrotation Yrotation Zrotation
				JOINT LeftLegRoll
				{
					OFFSET 0.000000 -0.000004 23.235504
					CHANNELS 3 Xrotation Yrotation Zrotation
					JOINT LeftFoot
					{
						OFFSET 0.000000 -0.000004 18.949600
						CHANNELS 3 Xrotation Yrotation Zrotation
						JOINT LeftToeBase
						{
							OFFSET 0.000000 0.000000 16.018799
							CHANNELS 3 Xrotation Yrotation Zrotation
							End Site
							{
								OFFSET -0.030426 0.894203 7.757828
							}
						}
					}
				}
			}
		}
	}
}
MOTION
Frames: 13
Frame Time: 0.041667
57.930798 -32.853317 96.791702 -2.361791 -0.851582 1.691378 -0.565986 -0.005596 -0.229038 2.870831 -0.007608 -0.467595 4.515880 -0.013195 -0.467474 8.583096 10.970214 -3.364363 11.206155 -15.231192 -1.256796 -13.213917 -65.989374 -15.863627 -39.965745 -111.017178 -21.711940 -0.000000 0.000000 0.000002 19.102980 -0.507268 -0.867156 -0.000010 0.000006 -3.007461 -5.000247 -8.000021 0.000015 -4.642249 66.208787 6.148509 -45.890931 109.135276 39.383793 -0.000001 -0.000007 0.000000 8.757379 8.672764 0.077336 -0.000004 -0.000005 3.000001 -5.000205 7.998903 -0.000136 -1.575071 -173.394488 4.147848 -179.999991 0.000005 -1.123998 173.623696 -1.581169 -0.510677 -0.000006 0.000002 0.091175 69.449118 6.942816 1.979541 25.456950 -7.355615 0.000000 0.394235 175.091107 -1.734255 -0.000020 -0.000004 -1.134060 -8.340925 2.404208 0.359617 -0.000006 0.000001 -0.157327 70.538041 -6.903596 -1.991087 25.456953 7.355613 -0.000000 
57.928699 -32.859417 96.793701 -2.359143 -0.852949 1.692772 -0.565793 -0.003932 -0.230090 2.871210 -0.004407 -0.469483 4.516261 -0.010002 -0.469404 8.673538 10.940939 -3.362784 11.171048 -15.174522 -1.260046 -13.230098 -65.963016 -15.881156 -39.976657 -111.028891 -21.541910 -0.000000 0.000000 -0.000001 19.022125 -0.373465 -0.885554 -0.000008 0.000007 -3.007461 -5.000246 -8.000020 0.000016 -4.581468 66.228035 6.081465 -45.991157 109.157857 39.468600 -0.000001 -0.000007 -0.000000 8.710377 8.658334 0.082021 -0.000004 -0.000005 3.000000 -5.000204 7.998903 -0.000136 -1.577306 -173.391483 4.149579 -179.999991 0.000005 -1.123998 173.627425 -1.583162 -0.510795 -0.000006 0.000002 0.091170 69.446795 6.942822 1.979488 25.456950 -7.355614 -0.000000 0.389454 175.094112 -1.731156 -0.000020 -0.000005 -1.134060 -8.340809 2.403477 0.359637 -0.000006 0.000000 -0.157326 70.539632 -6.903580 -1.990986 25.456953 7.355616 -0.000001 
57.909901 -32.812916 96.800400 -2.356303 -0.854410 1.694394 -0.565663 -0.002254 -0.231131 2.871460 -0.001179 -0.471358 4.516510 -0.006782 -0.471323 8.765938 10.911197 -3.361849 11.133667 -15.117459 -1.264137 -13.246822 -65.937615 -15.899328 -39.986605 -111.039096 -21.371211 -0.000001 0.000000 0.000000 18.942580 -0.240224 -0.903281 -0.000009 0.000007 -3.007460 -5.000248 -8.000019 0.000018 -4.519258 66.247296 6.012815 -46.091288 109.179174 39.553226 -0.000001 -0.000007 0.000000 8.663358 8.643930 0.086659 -0.000003 -0.000005 3.000001 -5.000202 7.998905 -0.000136 -1.579972 -173.388505 4.151330 -179.999991 0.000005 -1.123998 173.630690 -1.585154 -0.510926 -0.000007 0.000002 0.091187 69.444582 6.942834 1.979430 25.456948 -7.355613 -0.000000 0.384247 175.097104 -1.727910 -0.000020 -0.000004 -1.134059 -8.341016 2.402713 0.359668 -0.000007 0.000000 -0.157327 70.541231 -6.903595 -1.990989 25.456950 7.355614 0.000000 
57.917900 -32.820015 96.798500 -2.353342 -0.855937 1.696175 -0.565573 -0.000567 -0.232166 2.871620 0.002066 -0.473226 4.516670 -0.003543 -0.473234 8.859707 10.881197 -3.361352 11.094540 -15.060162 -1.268836 -13.264057 -65.913088 -15.918079 -39.994787 -111.048801 -21.198962 -0.000001 -0.000000 0.000000 18.863939 -0.107362 -0.920442 -0.000008 0.000007 -3.007460 -5.000247 -8.000019 0.000018 -4.455977 66.266359 5.942952 -46.189871 109.200129 39.636182 -0.000001 -0.000006 -0.000000 8.616335 8.629551 0.091268 -0.000004 -0.000005 3.000000 -5.000203 7.998903 -0.000136 -1.582929 -173.385500 4.153097 -179.999991 0.000005 -1.123998 173.633599 -1.587158 -0.511069 -0.000006 0.000002 0.091219 69.442547 6.942787 1.979548 25.456947 -7.355614 -0.000000 0.378740 175.100109 -1.724559 -0.000020 -0.000005 -1.134060 -8.341450 2.401939 0.359710 -0.000006 0.000000 -0.157327 70.542931 -6.903579 -1.991080 25.456948 7.355613 0.000001 
57.915497 -32.817120 96.800507 -2.350291 -0.857500 1.698057 -0.565514 0.001125 -0.233197 2.871730 0.005322 -0.475089 4.516780 -0.000294 -0.475142 8.954254 10.851066 -3.361054 11.054610 -15.002693 -1.273795 -13.281415 -65.888854 -15.937000 -40.003301 -111.057387 -21.027151 -0.000001 0.000000 0.000002 18.786007 0.025302 -0.937119 -0.000010 0.000008 -3.007459 -5.000245 -8.000021 0.000018 -4.392124 66.285517 5.872442 -46.287386 109.220858 39.717987 -0.000001 -0.000008 0.000000 8.569298 8.615193 0.095852 -0.000001 -0.000005 3.000000 -5.000204 7.998905 -0.000136 -1.586054 -173.381511 4.154856 -179.999991 0.000004 -1.123998 173.636304 -1.589149 -0.511214 -0.000006 0.000001 0.091259 69.440450 6.942837 1.979487 25.456950 -7.355615 -0.000001 0.373057 175.103101 -1.721155 -0.000020 -0.000004 -1.134060 -8.342007 2.401143 0.359753 -0.000007 0.000001 -0.157327 70.544741 -6.903565 -1.991066 25.456957 7.355613 0.000001 
57.899700 -32.812916 96.801399 -2.347244 -0.859072 1.699958 -0.565460 0.002818 -0.234226 2.871821 0.008580 -0.476951 4.516870 0.002958 -0.477048 9.048986 10.820912 -3.360747 11.014401 -14.945116 -1.278802 -13.298863 -65.864805 -15.956024 -40.009722 -111.066601 -20.853259 -0.000000 -0.000001 -0.000001 18.708279 0.157950 -0.953411 -0.000010 0.000008 -3.007459 -5.000250 -8.000019 0.000019 -4.327979 66.304546 5.801614 -46.384272 109.241492 39.799133 -0.000001 -0.000007 0.000000 8.522270 8.600824 0.100409 -0.000002 -0.000005 3.000000 -5.000203 7.998903 -0.000136 -1.589236 -173.378533 4.156648 -179.999991 0.000005 -1.123998 173.638941 -1.591153 -0.511364 -0.000007 0.000002 0.091301 69.438435 6.942823 1.979512 25.456952 -7.355615 -0.000000 0.367335 175.106093 -1.717737 -0.000020 -0.000005 -1.134061 -8.342592 2.400358 0.359800 -0.000007 0.000001 -0.157327 70.546442 -6.903584 -1.991064 25.456955 7.355613 -0.000000 
57.897499 -32.805115 96.801003 -2.344213 -0.860625 1.701820 -0.565391 0.004509 -0.235258 2.871941 0.011833 -0.478816 4.516990 0.006205 -0.478956 9.143303 10.790952 -3.360200 10.974750 -14.887695 -1.283502 -13.316115 -65.840476 -15.974815 -40.017802 -111.075057 -20.681039 -0.000000 -0.000000 0.000001 18.630354 0.290765 -0.969403 -0.000010 0.000009 -3.007460 -5.000248 -8.000019 0.000017 -4.264038 66.323548 5.731007 -46.481589 109.262393 39.880764 -0.000002 -0.000008 0.000000 8.475255 8.586455 0.104941 -0.000004 -0.000005 3.000001 -5.000205 7.998903 -0.000136 -1.592315 -173.375541 4.158429 -179.999991 0.000006 -1.123998 173.641673 -1.593143 -0.511508 -0.000006 0.000002 0.091339 69.436413 6.942809 1.979535 25.456952 -7.355614 -0.000001 0.361699 175.109098 -1.714347 -0.000020 -0.000004 -1.134060 -8.343117 2.399574 0.359843 -0.000007 0.000000 -0.157327 70.548245 -6.903569 -1.991048 25.456953 7.355613 -0.000000 
57.922600 -32.798615 96.803200 -2.341281 -0.862133 1.703552 -0.565293 0.006194 -0.236294 2.872120 0.015073 -0.480685 4.517170 0.009438 -0.480870 9.236618 10.761105 -3.359177 10.936283 -14.830487 -1.287679 -13.333023 -65.815655 -15.993211 -40.024864 -111.084462 -20.507648 -0.000001 0.000000 -0.000001 18.551929 0.423928 -0.985172 -0.000007 0.000007 -3.007458 -5.000245 -8.000020 0.000016 -4.200664 66.342604 5.661066 -46.577478 109.284324 39.960934 -0.000001 -0.000007 0.000000 8.428246 8.572068 0.109458 -0.000002 -0.000005 3.000000 -5.000203 7.998903 -0.000136 -1.595194 -173.372536 4.160195 -179.999991 0.000005 -1.123998 173.644705 -1.595135 -0.511645 -0.000007 0.000002 0.091366 69.434296 6.942791 1.979565 25.456950 -7.355614 0.000000 0.356277 175.112089 -1.711026 -0.000020 -0.000004 -1.134060 -8.343484 2.398799 0.359882 -0.000006 0.000001 -0.157327 70.549953 -6.903584 -1.991045 25.456953 7.355613 -0.000000 
57.932098 -32.833916 96.800598 -2.338506 -0.863564 1.705106 -0.565145 0.007867 -0.237340 2.872410 0.018293 -0.482565 4.517460 0.012650 -0.482794 9.328345 10.731784 -3.357508 10.899721 -14.773566 -1.291042 -13.349465 -65.790055 -16.011036 -40.033231 -111.094243 -20.335365 -0.000000 0.000000 0.000000 18.472615 0.557629 -1.000797 -0.000010 0.000008 -3.007459 -5.000243 -8.000020 0.000016 -4.138224 66.361510 5.592192 -46.676949 109.306174 40.044952 -0.000001 -0.000006 -0.000000 8.381252 8.557640 0.113962 -0.000002 -0.000005 3.000000 -5.000204 7.998905 -0.000136 -1.597732 -173.369558 4.161938 -179.999991 0.000004 -1.123998 173.648079 -1.597142 -0.511773 -0.000006 0.000002 0.091376 69.432076 6.942801 1.979506 25.456950 -7.355615 0.000000 0.351195 175.115081 -1.707825 -0.000020 -0.000004 -1.134060 -8.343599 2.398047 0.359910 -0.000007 0.000000 -0.157326 70.551544 -6.903568 -1.991043 25.456955 7.355613 -0.000000 
57.932800 -32.826614 96.803391 -2.335924 -0.864893 1.706400 -0.564926 0.009527 -0.238395 2.872851 0.021484 -0.484457 4.517891 0.015833 -0.484727 9.417891 10.702914 -3.354940 10.865907 -14.717089 -1.293291 -13.365120 -65.763206 -16.027942 -40.043777 -111.104631 -20.165116 -0.000000 0.000001 0.000002 18.391992 0.692047 -1.016350 -0.000009 0.000005 -3.007458 -5.000246 -8.000020 0.000016 -4.077217 66.380553 5.524937 -46.778309 109.328803 40.131077 -0.000001 -0.000008 0.000001 8.334292 8.543192 0.118459 -0.000003 -0.000005 3.000000 -5.000199 7.998903 -0.000136 -1.599795 -173.366566 4.163648 -179.999991 0.000005 -1.123998 173.652055 -1.599135 -0.511882 -0.000007 0.000002 0.091364 69.429645 6.942804 1.979558 25.456948 -7.355613 -0.000000 0.346589 175.118100 -1.704785 -0.000020 -0.000004 -1.134060 -8.343363 2.397316 0.359925 -0.000006 0.000001 -0.157327 70.552944 -6.903612 -1.990965 25.456950 7.355613 0.000000 
57.939499 -32.834114 96.809090 -2.333616 -0.866091 1.707367 -0.564622 0.011168 -0.239465 2.873470 0.024640 -0.486366 4.518510 0.018979 -0.486677 9.504655 10.674609 -3.351253 10.835357 -14.661133 -1.294213 -13.379923 -65.734984 -16.043824 -40.055054 -111.116468 -19.995211 -0.000001 -0.000000 -0.000000 18.309784 0.827370 -1.031898 -0.000008 0.000004 -3.007460 -5.000248 -8.000020 0.000017 -4.017959 66.399513 5.459670 -46.882227 109.352401 40.220037 -0.000001 -0.000007 0.000000 8.287361 8.528686 0.122956 -0.000001 -0.000005 3.000000 -5.000203 7.998904 -0.000136 -1.601276 -173.363575 4.165313 -179.999991 0.000005 -1.123999 173.656699 -1.601146 -0.510963 -0.000006 0.000002 0.091324 69.427104 6.942800 1.979518 25.456947 -7.355614 0.000000 0.342577 175.120081 -1.701952 -0.000020 -0.000004 -1.134059 -8.342679 2.396628 0.359923 -0.000007 0.000000 -0.157327 70.554324 -6.903594 -1.990977 25.456950 7.355613 0.000001 
57.935204 -32.835815 96.808708 -2.331606 -0.867131 1.707925 -0.564209 0.012787 -0.240551 2.874310 0.027752 -0.488295 4.519350 0.022079 -0.488645 9.588061 10.647183 -3.346275 10.808910 -14.605957 -1.293494 -13.393634 -65.704938 -16.058424 -40.068137 -111.130067 -19.826653 0.000000 0.000001 0.000001 18.225472 0.963786 -1.047504 -0.000010 0.000004 -3.007460 -5.000250 -8.000019 0.000017 -3.960927 66.418508 5.396944 -46.987187 109.377891 40.310247 -0.000002 -0.000006 -0.000000 8.240455 8.514130 0.127449 -0.000003 -0.000005 3.000001 -5.000202 7.998904 -0.000136 -1.602026 -173.361567 4.166961 -179.999991 0.000005 -1.123999 173.662231 -1.603145 -0.511030 -0.000007 0.000002 0.091247 69.424256 6.942821 1.979500 25.456950 -7.355613 -0.000000 0.339300 175.122089 -1.699361 -0.000020 -0.000004 -1.134060 -8.341453 2.395983 0.359901 -0.000006 0.000001 -0.157327 70.555485 -6.903573 -1.991001 25.456952 7.355615 -0.000001 
57.941399 -32.775921 96.788010 -2.329978 -0.867983 1.708015 -0.563669 0.014379 -0.241658 2.875410 0.030812 -0.490247 4.520460 0.025126 -0.490636 9.667503 10.620656 -3.339765 10.787177 -14.551532 -1.290914 -13.406094 -65.672856 -16.071527 -40.084912 -111.144711 -19.661449 -0.000000 0.000001 0.000002 18.138771 1.101486 -1.063226 -0.000010 0.000005 -3.007459 -5.000248 -8.000020 0.000016 -3.906484 66.437605 5.337149 -47.097993 109.404099 40.406798 -0.000001 -0.000008 0.000001 8.193598 8.499505 0.131960 -0.000003 -0.000005 3.000001 -5.000202 7.998903 -0.000136 -1.601923 -173.359586 4.168547 -179.999991 0.000005 -1.123998 173.668775 -1.605148 -0.511066 -0.000007 0.000002 0.091129 69.421175 6.942796 1.979488 25.456952 -7.355615 0.000000 0.336873 175.125080 -1.697057 -0.000020 -0.000004 -1.134060 -8.339599 2.395390 0.359856 -0.000006 0.000001 -0.157327 70.556332 -6.903583 -1.991051 25.456952 7.355613 -0.000000 
